name rise30.8019peak61.5557fall86.2505.mot
datacolumns 19
datarows 32
range 19.87825900000000 19.92992300000000
endheader
time	ground_force1_vx	ground_force1_vy	ground_force1_vz	ground_force1_px	ground_force1_py	ground_force1_pz	ground_force2_vx	ground_force2_vy	ground_force2_vz	ground_force2_px	ground_force2_py	ground_force2_pz	ground_torque1_x	ground_torque1_y	ground_torque1_z	ground_torque2_x	ground_torque2_y	ground_torque2_z	
19.87825900000000	-6.91326400000000	45.49166900000000	-11.93208300000000	0.26025100000000	0.00000000000000	0.08590900000000	-60.31430100000000	749.47419000000002	-43.53236200000000	0.02582400000000	0.00000000000000	-0.07692600000000	0.00000000000000	-6.45523300000000	0.00000000000000	0.00000000000000	-11.72160100000000	0.00000000000000	
19.87992300000000	-7.35788000000000	52.02495800000000	-13.14007100000000	0.26437500000000	0.00000000000000	0.08684000000000	-61.11000200000000	746.79177800000002	-43.16124500000000	0.02489300000000	0.00000000000000	-0.07679500000000	0.00000000000000	-7.19631000000000	0.00000000000000	0.00000000000000	-11.74431600000000	0.00000000000000	
19.88159400000000	-7.65465400000000	58.49997400000000	-14.20221700000000	0.26825200000000	0.00000000000000	0.08769800000000	-61.91837300000000	744.00267699999995	-42.77947800000000	0.02396500000000	0.00000000000000	-0.07666200000000	0.00000000000000	-7.87420500000000	0.00000000000000	0.00000000000000	-11.77089500000000	0.00000000000000	
19.88325800000000	-7.79347200000000	64.85193700000001	-15.10029000000000	0.27190700000000	0.00000000000000	0.08849300000000	-62.73838600000000	741.10379399999999	-42.38681300000000	0.02304200000000	0.00000000000000	-0.07652700000000	0.00000000000000	-8.47726800000000	0.00000000000000	0.00000000000000	-11.80124600000000	0.00000000000000	
19.88493000000000	-7.77140100000000	71.04087000000000	-15.82562400000000	0.27536100000000	0.00000000000000	0.08923400000000	-63.56892200000000	738.09199899999999	-41.98300100000000	0.02212300000000	0.00000000000000	-0.07639000000000	0.00000000000000	-8.99885200000000	0.00000000000000	0.00000000000000	-11.83525900000000	0.00000000000000	
19.88660200000000	-7.59198700000000	77.05108300000001	-16.37842500000000	0.27863300000000	0.00000000000000	0.08992700000000	-64.40877800000000	734.96413700000005	-41.56779200000000	0.02120900000000	0.00000000000000	-0.07625000000000	0.00000000000000	-9.43710000000000	0.00000000000000	0.00000000000000	-11.87281100000000	0.00000000000000	
19.88826500000000	-7.26413800000000	82.88874300000001	-16.76648800000000	0.28173700000000	0.00000000000000	0.09057800000000	-65.25665900000000	731.71703600000001	-41.14093400000000	0.02030000000000	0.00000000000000	-0.07610900000000	0.00000000000000	-9.79438900000000	0.00000000000000	0.00000000000000	-11.91376000000000	0.00000000000000	
19.88993000000000	-6.80077200000000	88.57806100000001	-17.00349300000000	0.28468700000000	0.00000000000000	0.09119100000000	-66.11118700000000	728.34751900000003	-40.70218200000000	0.01939800000000	0.00000000000000	-0.07596500000000	0.00000000000000	-10.07650500000000	0.00000000000000	0.00000000000000	-11.95795200000000	0.00000000000000	
19.89159500000000	-6.21735900000000	94.15665900000000	-17.10713000000000	0.28749300000000	0.00000000000000	0.09177200000000	-66.97089699999999	724.85242100000005	-40.25129300000000	0.01850300000000	0.00000000000000	-0.07581900000000	0.00000000000000	-10.29168700000000	0.00000000000000	0.00000000000000	-12.00521500000000	0.00000000000000	
19.89326500000000	-5.53051500000000	99.67064499999999	-17.09721300000000	0.29016300000000	0.00000000000000	0.09232300000000	-67.83423999999999	721.22859900000003	-39.78803600000000	0.01761500000000	0.00000000000000	-0.07567100000000	0.00000000000000	-10.44962500000000	0.00000000000000	0.00000000000000	-12.05536100000000	0.00000000000000	
19.89492800000000	-4.75674400000000	105.16983100000000	-16.99395000000000	0.29270700000000	0.00000000000000	0.09284800000000	-68.69958800000001	717.47294299999999	-39.31218900000000	0.01673400000000	0.00000000000000	-0.07552100000000	0.00000000000000	-10.56051700000000	0.00000000000000	0.00000000000000	-12.10819000000000	0.00000000000000	
19.89659300000000	-3.91140400000000	110.70347800000000	-16.81647700000000	0.29513000000000	0.00000000000000	0.09334800000000	-69.56522900000000	713.58239300000002	-38.82354500000000	0.01586200000000	0.00000000000000	-0.07536800000000	0.00000000000000	-10.63423700000000	0.00000000000000	0.00000000000000	-12.16348400000000	0.00000000000000	
19.89825900000000	-3.00793900000000	116.31677900000000	-16.58172700000000	0.29743900000000	0.00000000000000	0.09382600000000	-70.42937700000000	709.55395099999998	-38.32191400000000	0.01499700000000	0.00000000000000	-0.07521400000000	0.00000000000000	-10.67967100000000	0.00000000000000	0.00000000000000	-12.22101300000000	0.00000000000000	
19.89993100000000	-2.05739600000000	122.04825500000000	-16.30366300000000	0.29963800000000	0.00000000000000	0.09428500000000	-71.29017200000000	705.38469599999996	-37.80712500000000	0.01414200000000	0.00000000000000	-0.07505800000000	0.00000000000000	-10.70424900000000	0.00000000000000	0.00000000000000	-12.28053200000000	0.00000000000000	
19.90159400000000	-1.06819900000000	127.92807400000000	-15.99286500000000	0.30173200000000	0.00000000000000	0.09472600000000	-72.14568199999999	701.07179699999995	-37.27902900000000	0.01329600000000	0.00000000000000	-0.07490000000000	0.00000000000000	-10.71365800000000	0.00000000000000	0.00000000000000	-12.34178300000000	0.00000000000000	
19.90326100000000	-0.04617000000000	133.97727399999999	-15.65644700000000	0.30372500000000	0.00000000000000	0.09515000000000	-72.99390900000000	696.61252899999999	-36.73750100000000	0.01245800000000	0.00000000000000	-0.07474000000000	0.00000000000000	-10.71174800000000	0.00000000000000	0.00000000000000	-12.40449300000000	0.00000000000000	
19.90492700000000	1.00526100000000	140.20777200000001	-15.29825000000000	0.30562000000000	0.00000000000000	0.09555800000000	-73.83279300000000	692.00428799999997	-36.18244600000000	0.01163000000000	0.00000000000000	-0.07457800000000	0.00000000000000	-10.70058900000000	0.00000000000000	0.00000000000000	-12.46837800000000	0.00000000000000	
19.90659400000000	2.08471000000000	146.62302399999999	-14.91923500000000	0.30742000000000	0.00000000000000	0.09595200000000	-74.66021300000000	687.24460799999997	-35.61379600000000	0.01081100000000	0.00000000000000	-0.07441400000000	0.00000000000000	-10.68065600000000	0.00000000000000	0.00000000000000	-12.53314200000000	0.00000000000000	
19.90826500000000	3.19239400000000	153.21915899999999	-14.51802700000000	0.30912700000000	0.00000000000000	0.09633400000000	-75.47399799999999	682.33117400000003	-35.03151700000000	0.01000200000000	0.00000000000000	-0.07424800000000	0.00000000000000	-10.65109800000000	0.00000000000000	0.00000000000000	-12.59847800000000	0.00000000000000	
19.90992300000000	4.32965500000000	159.98642100000001	-14.09152500000000	0.31074500000000	0.00000000000000	0.09670200000000	-76.27192599999999	677.26184100000000	-34.43560800000000	0.00920200000000	0.00000000000000	-0.07408100000000	0.00000000000000	-10.61006900000000	0.00000000000000	0.00000000000000	-12.66406600000000	0.00000000000000	
19.91161700000000	5.49848100000000	166.91074699999999	-13.63553900000000	0.31227400000000	0.00000000000000	0.09705900000000	-77.05173400000000	672.03465100000005	-33.82610600000000	0.00841200000000	0.00000000000000	-0.07391200000000	0.00000000000000	-10.55506500000000	0.00000000000000	0.00000000000000	-12.72958000000000	0.00000000000000	
19.91325900000000	6.70107000000000	173.97535300000001	-13.14538000000000	0.31371700000000	0.00000000000000	0.09740600000000	-77.81111900000001	666.64784599999996	-33.20308400000000	0.00763100000000	0.00000000000000	-0.07374100000000	0.00000000000000	-10.48325500000000	0.00000000000000	0.00000000000000	-12.79468000000000	0.00000000000000	
19.91492800000000	7.93945300000000	181.16218699999999	-12.61638800000000	0.31507500000000	0.00000000000000	0.09774200000000	-78.54774900000000	661.09989099999996	-32.56665600000000	0.00685900000000	0.00000000000000	-0.07356900000000	0.00000000000000	-10.39178500000000	0.00000000000000	0.00000000000000	-12.85902200000000	0.00000000000000	
19.91659700000000	9.21520300000000	188.45319499999999	-12.04435900000000	0.31635000000000	0.00000000000000	0.09806800000000	-79.25926600000000	655.38948400000004	-31.91697800000000	0.00609600000000	0.00000000000000	-0.07339600000000	0.00000000000000	-10.27802000000000	0.00000000000000	0.00000000000000	-12.92225100000000	0.00000000000000	
19.91825800000000	10.52922300000000	195.83132499999999	-11.42586400000000	0.31754300000000	0.00000000000000	0.09838500000000	-79.94329300000000	649.51557400000002	-31.25424600000000	0.00534200000000	0.00000000000000	-0.07322100000000	0.00000000000000	-10.13973700000000	0.00000000000000	0.00000000000000	-12.98400800000000	0.00000000000000	
19.91992600000000	11.88162200000000	203.28125199999999	-10.75845300000000	0.31865600000000	0.00000000000000	0.09869300000000	-80.59744200000000	643.47737700000005	-30.57870200000000	0.00459700000000	0.00000000000000	-0.07304400000000	0.00000000000000	-9.97525100000000	0.00000000000000	0.00000000000000	-13.04392700000000	0.00000000000000	
19.92159200000000	13.27167400000000	210.78982400000001	-10.04075800000000	0.31968800000000	0.00000000000000	0.09899300000000	-81.21931900000000	637.27438700000005	-29.89063100000000	0.00386000000000	0.00000000000000	-0.07286700000000	0.00000000000000	-9.78348400000000	0.00000000000000	0.00000000000000	-13.10163700000000	0.00000000000000	
19.92326200000000	14.69783700000000	218.34626600000001	-9.27250100000000	0.32064200000000	0.00000000000000	0.09928400000000	-81.80653200000000	630.90638600000000	-29.19036400000000	0.00313000000000	0.00000000000000	-0.07268800000000	0.00000000000000	-9.56397800000000	0.00000000000000	0.00000000000000	-13.15676400000000	0.00000000000000	
19.92492900000000	16.15782600000000	225.94215100000000	-8.45442700000000	0.32151900000000	0.00000000000000	0.09956700000000	-82.35669799999999	624.37345700000003	-28.47828000000000	0.00240800000000	0.00000000000000	-0.07250800000000	0.00000000000000	-9.31686700000000	0.00000000000000	0.00000000000000	-13.20893100000000	0.00000000000000	
19.92659200000000	17.64872800000000	233.57120800000001	-7.58818100000000	0.32231800000000	0.00000000000000	0.09984300000000	-82.86745000000001	617.67598799999996	-27.75480100000000	0.00169400000000	0.00000000000000	-0.07232700000000	0.00000000000000	-9.04281600000000	0.00000000000000	0.00000000000000	-13.25775900000000	0.00000000000000	
19.92825700000000	19.16713200000000	241.22901500000000	-6.67615100000000	0.32304100000000	0.00000000000000	0.10011100000000	-83.33644900000000	610.81467399999997	-27.02040100000000	0.00098500000000	0.00000000000000	-0.07214500000000	0.00000000000000	-8.74292800000000	0.00000000000000	0.00000000000000	-13.30286900000000	0.00000000000000	
19.92992300000000	20.70927200000000	248.91260600000001	-5.72129200000000	0.32368900000000	0.00000000000000	0.10037200000000	-83.76138400000001	603.79052400000000	-26.27560000000000	0.00028300000000	0.00000000000000	-0.07196200000000	0.00000000000000	-8.41865600000000	0.00000000000000	0.00000000000000	-13.34388200000000	0.00000000000000	
